<svg xmlns="http://www.w3.org/2000/svg" viewBox="0 0 64 64" width="64" height="64">
  <defs>
    <linearGradient id="g" x1="0" y1="0" x2="1" y2="1">
      <stop offset="0" stop-color="#a855f7"/>
      <stop offset="0.55" stop-color="#7c3aed"/>
      <stop offset="1" stop-color="#6366f1"/>
    </linearGradient>
  </defs>
  <rect width="64" height="64" rx="16" fill="#0a0a0f"/>
  <rect x="6" y="6" width="52" height="52" rx="13" fill="url(#g)" opacity="0.18"/>
  <path d="M18 20h22a8 8 0 0 1 8 8v6a8 8 0 0 1-8 8H30l-9 7v-7h-3a8 8 0 0 1-8-8v-6a8 8 0 0 1 8-8z"
        fill="url(#g)"/>
  <circle cx="26" cy="31" r="2.6" fill="#fff"/>
  <circle cx="34" cy="31" r="2.6" fill="#fff"/>
  <circle cx="42" cy="31" r="2.6" fill="#fff"/>
</svg>
